<?xml version="1.0" encoding="UTF-8"?>
<svg width="36px" height="36px" viewBox="0 0 36 36" version="1.1" xmlns="http://www.w3.org/2000/svg" xmlns:xlink="http://www.w3.org/1999/xlink">
    <title>Group</title>
    <defs>
        <path d="M18,0 C27.941,0 36,8.059 36,18 C36,27.8305444 28.119094,35.8206788 18.3306612,35.9970237 L18,36 C8.059,36 0,27.941 0,18 C0,8.16945556 7.88090605,0.179321235 17.6693388,0.00297634156 L18,0 Z" id="path-1"></path>
        <path d="M10.805,0 C12.121,0 13.294,0.64 13.943,1.705 L20.513,12.371 C21.167,13.444 21.162,14.721 20.5,15.785 C19.847,16.838 18.678,17.471 17.37,17.471 L4.264,17.471 C2.953,17.471 1.776,16.83 1.114,15.758 C0.456,14.693 0.452,13.424 1.105,12.363 L7.667,1.709 C8.316,0.636 9.489,0 10.805,0 Z M10.805,1.54 C10.088,1.54 9.447,1.89 9.091,2.475 L2.526,13.137 C2.174,13.711 2.178,14.402 2.538,14.988 C2.903,15.577 3.548,15.927 4.269,15.927 L17.375,15.927 C18.087,15.927 18.728,15.585 19.084,15.007 C19.444,14.422 19.449,13.723 19.088,13.133 L12.519,2.471 C12.162,1.886 11.526,1.54 10.805,1.54 Z" id="path-3"></path>
    </defs>
    <g id="Page-1" stroke="none" stroke-width="1" fill="none" fill-rule="evenodd">
        <g id="Coaching-blue" transform="translate(-1006.000000, -650.000000)">
            <g id="Group" transform="translate(1006.000000, 650.000000)">
                <g id="Group-241">
                    <mask id="mask-2" fill="white">
                        <use xlink:href="#path-1"></use>
                    </mask>
                    <g id="Clip-239"></g>
                    <path d="M18,0 C27.941,0 36,8.059 36,18 C36,27.941 27.941,36 18,36 C8.059,36 0,27.941 0,18 C0,8.059 8.059,0 18,0 Z" id="Fill-238" fill="#FEC004" mask="url(#mask-2)"></path>
                    <path d="M18,0 C27.94112,0 36,8.058874 36,18 C36,27.94112 27.94112,36 18,36 C8.058874,36 0,27.94112 0,18 C0,8.058874 8.058874,0 18,0 Z" id="Stroke-240" stroke="#FFFFFF" stroke-width="2.4" mask="url(#mask-2)"></path>
                </g>
                <g id="Group-247" transform="translate(7.000000, 8.000000)">
                    <mask id="mask-4" fill="white">
                        <use xlink:href="#path-3"></use>
                    </mask>
                    <g id="Clip-246"></g>
                    <polygon id="Fill-245" fill="#000000" mask="url(#mask-4)" points="-9.382 27.471 31.00035 27.471 31.00035 -9.99959 -9.382 -9.99959"></polygon>
                </g>
            </g>
        </g>
    </g>
</svg>