<?xml version="1.0" encoding="UTF-8"?>
<svg width="64px" height="51px" viewBox="0 0 64 51" version="1.1" xmlns="http://www.w3.org/2000/svg" xmlns:xlink="http://www.w3.org/1999/xlink">
    <title>Group 432</title>
    <defs>
        <path d="M49,0.192 C57.271,0.192 64,6.921 64,15.192 L64,35.692 C64,43.963 57.271,50.692 49,50.692 L15,50.692 C6.729,50.692 0,43.963 0,35.692 L0,15.192 C0,6.921 6.729,0.192 15,0.192 L49,0.192 Z M49,5.192 L15,5.192 C9.486,5.192 5,9.678 5,15.192 L5,35.692 C5,41.206 9.486,45.692 15,45.692 L49,45.692 C54.514,45.692 59,41.206 59,35.692 L59,15.192 C59,9.678 54.514,5.192 49,5.192 Z M16,34.442 C17.726,34.442 19.125,35.841 19.125,37.567 C18.961,41.711 13.04,41.713 12.875,37.567 C12.875,35.841 14.274,34.442 16,34.442 Z M26.75,34.442 C28.476,34.442 29.875,35.841 29.875,37.567 C29.711,41.711 23.79,41.713 23.625,37.567 C23.625,35.841 25.024,34.442 26.75,34.442 Z M37.5,34.442 C39.226,34.442 40.625,35.841 40.625,37.567 C40.461,41.711 34.54,41.713 34.375,37.567 C34.375,35.841 35.774,34.442 37.5,34.442 Z M48.25,34.442 C49.976,34.442 51.375,35.841 51.375,37.567 C51.211,41.711 45.29,41.713 45.125,37.567 C45.125,35.841 46.524,34.442 48.25,34.442 Z M16,23.692 C17.726,23.692 19.125,25.091 19.125,26.817 C19.125,28.543 17.726,29.942 16,29.942 C11.855,29.778 11.856,23.856 16,23.692 Z M26.75,23.692 C28.476,23.692 29.875,25.091 29.875,26.817 C29.711,30.961 23.79,30.963 23.625,26.817 C23.625,25.091 25.024,23.692 26.75,23.692 Z M37.5,23.692 C39.226,23.692 40.625,25.091 40.625,26.817 C40.461,30.961 34.54,30.963 34.375,26.817 C34.375,25.091 35.774,23.692 37.5,23.692 Z M48.25,23.692 C49.976,23.692 51.375,25.091 51.375,26.817 C51.211,30.961 45.29,30.963 45.125,26.817 C45.125,25.091 46.524,23.692 48.25,23.692 Z M51.5,13.942 C54.814,14.073 54.817,18.81 51.5,18.942 L51.5,18.942 L12.5,18.942 C9.185,18.811 9.183,14.074 12.5,13.942 L12.5,13.942 L51.5,13.942 Z" id="path-1"></path>
    </defs>
    <g id="Page-1" stroke="none" stroke-width="1" fill="none" fill-rule="evenodd">
        <g id="Sales--blue" transform="translate(-2214.000000, -459.000000)">
            <g id="Group-432" transform="translate(2214.000000, 459.000000)">
                <mask id="mask-2" fill="white">
                    <use xlink:href="#path-1"></use>
                </mask>
                <g id="Clip-431"></g>
                <polygon id="Fill-430" fill="#000000" mask="url(#mask-2)" points="-10 -9.808 74 -9.808 74 60.692 -10 60.692"></polygon>
            </g>
        </g>
    </g>
</svg>