<?xml version="1.0" encoding="UTF-8"?>
<svg width="15px" height="15px" viewBox="0 0 15 15" version="1.1" xmlns="http://www.w3.org/2000/svg" xmlns:xlink="http://www.w3.org/1999/xlink">
    <title>Combined Shape</title>
    <g id="Page-1" stroke="none" stroke-width="1" fill="none" fill-rule="evenodd">
        <g id="Sales--Console-Gray" transform="translate(-866.000000, -479.000000)" fill="#FFFFFF" fill-rule="nonzero" stroke="#FFFFFF" stroke-width="0.5">
            <g id="Calendar" transform="translate(758.000000, 228.000000)">
                <g transform="translate(0.000000, 37.000000)" id="Task">
                    <g transform="translate(93.000000, 199.000000)">
                        <g id="Group-57" transform="translate(2.000000, 0.000000)">
                            <g id="Group-52" transform="translate(8.000000, 11.000000)">
                                <path d="M17.4176618,15.6172844 C17.5202285,15.6172844 17.6033753,15.7004315 17.6033753,15.8029986 C17.6033753,15.9055658 17.5202285,15.9887129 17.4176618,15.9887129 L15.8762404,15.9887129 C15.3123781,15.989327 14.8554306,16.4462765 14.8548165,17.0101413 L14.8548165,17.6285698 L15.492,17.628 L15.4929278,17.0970556 C15.4929278,16.9944884 15.5760746,16.9113413 15.6786413,16.9113413 C15.781208,16.9113413 15.8643547,16.9944884 15.8643547,17.0970556 L15.8643547,17.6285698 L17.6186038,17.6285698 L17.6186038,17.0970556 C17.6186038,16.9944884 17.7017505,16.9113413 17.8043172,16.9113413 C17.9068839,16.9113413 17.9900306,16.9944884 17.9900306,17.0970556 L17.99,17.628 L18.6285134,17.6285698 L18.6285134,17.0101413 C18.6291883,16.9310844 18.6194475,16.8522829 18.5995421,16.7757699 C18.5953124,16.7601511 18.5931889,16.744037 18.5932279,16.7278556 C18.5924009,16.6316127 18.6652387,16.5506856 18.7610368,16.5414101 C18.8568349,16.5321346 18.9438453,16.5975846 18.9614976,16.6921985 C18.9877745,16.7961145 19.0006929,16.9029571 18.9999714,17.0101413 L18.9999714,17.8142841 C18.9999714,17.9168512 18.9167936,17.9999983 18.8142269,17.9999983 L14.669103,17.9999983 C14.5665363,17.9999983 14.4833896,17.9168512 14.4833896,17.8142841 L14.4833896,17.0101413 C14.4842085,16.2412271 15.1073296,15.6181032 15.8762404,15.6172844 L17.4176618,15.6172844 Z M9.12462851,15.6178415 C9.89358167,15.6185582 10.5167626,16.2417419 10.5174793,17.0106985 L10.5174793,17.8142841 C10.5174793,17.8636352 10.4978368,17.910957 10.4628882,17.9458013 C10.4279396,17.9806455 10.3805594,18.0001464 10.3312087,17.9999992 L6.18571343,17.9999992 C6.08314674,17.9999992 6,17.9168512 6,17.8142841 L6,17.0106985 C6.00071669,16.2417419 6.62389758,15.6185582 7.39285075,15.6178415 L9.12462851,15.6178415 Z M9.12407137,15.98927 L7.39285075,15.98927 C6.8289461,15.989782 6.37193881,16.4467913 6.37142687,17.0106985 L6.37142687,17.6285698 L7.009,17.628 L7.00990965,17.0970556 C7.00990965,16.9944884 7.09305638,16.9113413 7.19562308,16.9113413 C7.29818978,16.9113413 7.38133651,16.9944884 7.38133651,17.0970556 L7.38133651,17.6285698 L9.1355856,17.6285698 L9.1355856,17.0970556 C9.1355856,16.9944884 9.21873233,16.9113413 9.32129903,16.9113413 C9.42386573,16.9113413 9.50701246,16.9944884 9.50701246,17.0970556 L9.507,17.628 L10.1454952,17.6285698 L10.1454952,17.0106985 C10.1449833,16.4467913 9.68797601,15.989782 9.12407137,15.98927 Z M18.2463152,15.7714272 C18.3439251,15.8224348 18.4351828,15.8847695 18.5181996,15.9571415 C18.5767156,16.0079633 18.5975174,16.0897807 18.5703808,16.1623797 C18.5432442,16.2349786 18.4738761,16.2830913 18.3963716,16.28307 L18.3963716,16.2821414 C18.3516057,16.2821537 18.3083419,16.2659957 18.2745436,16.2366414 C18.2134734,16.1839735 18.1464743,16.1386009 18.0749017,16.1014414 C17.9837712,16.0541067 17.9482675,15.9418581 17.9956021,15.8507272 C18.0429366,15.7595963 18.1551847,15.7240925 18.2463152,15.7714272 Z M17.2092584,12.8001893 C17.6660252,12.9893892 17.963845,13.4351101 17.963845,13.9295131 C17.9630264,14.6042708 17.4162339,15.1510658 16.7414792,15.1518844 C16.2470784,15.1518844 15.8013595,14.8540632 15.6121605,14.3972944 C15.4229615,13.9405255 15.5275419,13.4147619 15.8771361,13.0651661 C16.2267303,12.7155704 16.7524916,12.6109895 17.2092584,12.8001893 Z M8.7262402,12.8001893 C9.183007,12.9893892 9.48082687,13.4351101 9.48082687,13.9295131 C9.48000824,14.6042708 8.93321567,15.1510658 8.25846106,15.1518844 C7.76406023,15.1518844 7.3183413,14.8540632 7.1291423,14.3972944 C6.9399433,13.9405255 7.04452373,13.4147619 7.3941179,13.0651661 C7.74371207,12.7155704 8.2694734,12.6109895 8.7262402,12.8001893 Z M16.7414792,13.0785704 C16.2715186,13.0785704 15.8905403,13.4595504 15.8905403,13.9295131 C15.8905403,14.3994758 16.2715186,14.7804559 16.7414792,14.7804559 C17.2114398,14.7804559 17.5924182,14.3994758 17.5924182,13.9295131 C17.5919064,13.4597626 17.2112277,13.0790822 16.7414792,13.0785704 Z M8.25846106,13.0785704 C7.78850045,13.0785704 7.40752211,13.4595504 7.40752211,13.9295131 C7.40752211,14.3994758 7.78850045,14.7804559 8.25846106,14.7804559 C8.72842166,14.7804559 9.1094,14.3994758 9.1094,13.9295131 C9.10878614,13.4598049 8.72816715,13.0791843 8.25846106,13.0785704 Z M12.4999701,11.4535706 C12.6025368,11.4535706 12.6856836,11.5367177 12.6856836,11.6392849 L12.685,12.9 L13.8371069,13.8646989 C13.8970374,13.914835 13.9191765,13.9971211 13.892494,14.0705607 C13.8724821,14.1256404 13.8282187,14.1669071 13.774374,14.1840864 L13.717,14.192 L13.6758147,14.1878922 C13.6479508,14.1812959 13.6218031,14.1682592 13.5995794,14.1495845 L12.4999701,13.2302989 L11.4003609,14.1495845 C11.3499934,14.1962692 11.2779741,14.211347 11.2131097,14.1887872 C11.1482454,14.1662274 11.1011257,14.109713 11.0905978,14.0418489 C11.08007,13.9739849 11.1078528,13.9058506 11.1628334,13.8646989 L12.314,12.901 L12.3142567,11.6392849 C12.3142567,11.5367177 12.3974034,11.4535706 12.4999701,11.4535706 Z M13.3663233,7.91069963 C14.1352765,7.91141632 14.7584574,8.53459999 14.7591741,9.30355659 L14.7591741,10.1071422 C14.7591741,10.1565257 14.7395063,10.2038757 14.7045175,10.2387254 C14.6695286,10.273575 14.6221006,10.293054 14.5727178,10.292858 L10.4272225,10.292858 C10.3246558,10.292858 10.2415091,10.2097094 10.2415091,10.1071422 L10.2415091,9.30355659 C10.2422258,8.53459999 10.8654067,7.91141632 11.6343598,7.91069963 L13.3663233,7.91069963 Z M13.3655805,8.28212815 L11.6339884,8.28212815 C11.0700838,8.2826401 10.6130765,8.73964943 10.6125645,9.30355659 L10.612936,9.92142794 L11.251,9.921 L11.2514187,9.38991372 C11.2514187,9.28734657 11.3345655,9.20419946 11.4371322,9.20419946 C11.5396989,9.20419946 11.6228456,9.28734657 11.6228456,9.38991372 L11.6228456,9.92142794 L13.3770947,9.92142794 L13.3770947,9.38991372 C13.3770947,9.28734657 13.4602414,9.20419946 13.5628081,9.20419946 C13.6653748,9.20419946 13.7485216,9.28734657 13.7485216,9.38991372 L13.748,9.921 L14.3870043,9.92142794 L14.3870043,9.30355659 C14.3864924,8.73964943 13.9294851,8.2826401 13.3655805,8.28212815 Z M12.4999701,5 C13.1750641,5 13.722336,5.54727426 13.722336,6.22237127 C13.7215173,6.8971289 13.1747248,7.44392391 12.4999701,7.44474254 C11.8248761,7.44474254 11.2776043,6.89746828 11.2776043,6.22237127 C11.2776043,5.54727426 11.8248761,5 12.4999701,5 Z M12.4999701,5.37142852 C12.0300095,5.37142852 11.6490312,5.75240857 11.6490312,6.22237127 C11.6490312,6.69233397 12.0300095,7.07331402 12.4999701,7.07331402 C12.9699307,7.07331402 13.3509091,6.69233397 13.3509091,6.22237127 C13.3502952,5.75266308 12.9696762,5.37204239 12.4999701,5.37142852 Z" id="Combined-Shape"></path>
                            </g>
                        </g>
                    </g>
                </g>
            </g>
        </g>
    </g>
</svg>