<?xml version="1.0" encoding="UTF-8"?>
<svg width="14px" height="14px" viewBox="0 0 14 14" version="1.1" xmlns="http://www.w3.org/2000/svg" xmlns:xlink="http://www.w3.org/1999/xlink">
    <title>Shape Copy 5</title>
    <g id="Page-1" stroke="none" stroke-width="1" fill="none" fill-rule="evenodd">
        <g id="Sales--Console-Gray" transform="translate(-865.000000, -881.000000)" fill="#FFFFFF" fill-rule="nonzero">
            <g id="Calendar" transform="translate(758.000000, 228.000000)">
                <g transform="translate(0.000000, 37.000000)" id="Task">
                    <g transform="translate(93.000000, 199.000000)">
                        <g id="Group-60" transform="translate(0.000000, 401.000000)">
                            <g id="Group-52-Copy" transform="translate(8.000000, 11.000000)">
                                <path d="M18.459918,15.2262344 C18.8999609,14.8498203 19.1796875,14.2911055 19.1796875,13.6679688 C19.1796875,12.9984844 18.8571406,12.4029922 18.359375,12.0284648 C18.359375,12.0281094 18.359375,12.0277266 18.359375,12.0273438 C18.359375,9.07946875 15.9472734,6.66796875 13,6.66796875 C12.2645352,6.66796875 11.5600234,6.80113281 10.9217109,7.0575625 C10.9217109,7.05529297 10.921875,7.05305078 10.921875,7.05078125 C10.921875,5.91998047 10.0018945,5 8.87109375,5 C7.74029297,5 6.8203125,5.91998047 6.8203125,7.05078125 C6.8203125,7.67391797 7.10003906,8.23263281 7.54008203,8.60904688 C6.62537891,9.08969531 6,10.0492969 6,11.1523438 L6,11.9726562 C6,12.1991719 6.18364062,12.3828125 6.41015625,12.3828125 L7.65632031,12.3828125 C7.86563672,15.1312148 10.1819531,17.3320312 13,17.3320312 C13.4586641,17.3320312 13.9027266,17.2831133 14.3168203,17.1889688 C14.2781563,17.3765195 14.2578125,17.5706875 14.2578125,17.7695312 L14.2578125,18.5898438 C14.2578125,18.8163594 14.4414531,19 14.6679688,19 L19.5898438,19 C19.8163594,19 20,18.8163594 20,18.5898438 L20,17.7695312 C20,16.6664844 19.3746211,15.7068828 18.459918,15.2262344 Z M18.359375,13.6679687 C18.359375,14.3464492 17.8073867,14.8984375 17.1289062,14.8984375 C16.4504258,14.8984375 15.8984375,14.3464492 15.8984375,13.6679687 C15.8984375,12.9894883 16.4504258,12.4375 17.1289062,12.4375 C17.8073867,12.4375 18.359375,12.9894883 18.359375,13.6679687 Z M8.87109375,5.8203125 C9.54957422,5.8203125 10.1015625,6.37230078 10.1015625,7.05078125 C10.1015625,7.72926172 9.54957422,8.28125 8.87109375,8.28125 C8.19261328,8.28125 7.640625,7.72926172 7.640625,7.05078125 C7.640625,6.37230078 8.19261328,5.8203125 8.87109375,5.8203125 Z M6.8203125,11.5625 L6.8203125,11.1523438 C6.8203125,10.021543 7.74029297,9.1015625 8.87109375,9.1015625 C10.0018945,9.1015625 10.921875,10.021543 10.921875,11.1523438 L10.921875,11.5625 L6.8203125,11.5625 Z M13,16.5117188 C10.6353945,16.5117188 8.68769922,14.6941523 8.47966797,12.3828125 L11.3320312,12.3828125 C11.5585469,12.3828125 11.7421875,12.1991719 11.7421875,11.9726562 L11.7421875,11.1523438 C11.7421875,10.0492969 11.1168086,9.08969531 10.2021055,8.60904688 C10.3642266,8.47035937 10.5046914,8.30711719 10.6172656,8.12476172 C11.3000938,7.70845313 12.121418,7.48828125 13,7.48828125 C15.3777031,7.48828125 17.3340664,9.32605469 17.52375,11.6557148 C17.395918,11.630668 17.2639844,11.6171875 17.1289062,11.6171875 C15.9981055,11.6171875 15.078125,12.537168 15.078125,13.6679688 C15.078125,14.2911055 15.3578516,14.8498203 15.7978945,15.2262344 C15.3594648,15.4566055 14.9875352,15.7969805 14.7190742,16.2105 C14.2205703,16.4077305 13.6293711,16.5117188 13,16.5117188 Z M19.1796875,18.1796875 L15.078125,18.1796875 L15.078125,17.7695312 C15.078125,16.6387305 15.9981055,15.71875 17.1289062,15.71875 C18.259707,15.71875 19.1796875,16.6387305 19.1796875,17.7695312 L19.1796875,18.1796875 Z" id="Shape-Copy-5"></path>
                            </g>
                        </g>
                    </g>
                </g>
            </g>
        </g>
    </g>
</svg>