<?xml version="1.0" encoding="UTF-8"?>
<svg width="14px" height="11px" viewBox="0 0 14 11" version="1.1" xmlns="http://www.w3.org/2000/svg" xmlns:xlink="http://www.w3.org/1999/xlink">
    <title>Shape</title>
    <g id="Page-1" stroke="none" stroke-width="1" fill="none" fill-rule="evenodd">
        <g id="Sales--Console-Gray" transform="translate(-867.000000, -549.000000)" fill="#FFFFFF" fill-rule="nonzero">
            <g id="Calendar" transform="translate(758.000000, 228.000000)">
                <g transform="translate(0.000000, 37.000000)" id="Task">
                    <g transform="translate(93.000000, 199.000000)">
                        <g id="Group-54" transform="translate(2.000000, 67.000000)">
                            <g id="Group-50" transform="translate(8.000000, 11.000000)">
                                <path d="M18.7695312,7 L7.23046875,7 C6.55283594,7 6,7.56963077 6,8.26923077 L6,16.7307692 C6,17.428 6.550375,18 7.23046875,18 L18.7695312,18 C19.4454687,18 20,17.4322872 20,16.7307692 L20,8.26923077 C20,7.572 19.449625,7 18.7695312,7 Z M18.5996172,7.84615385 L13.0260859,13.5952897 L7.40434766,7.84615385 L18.5996172,7.84615385 Z M6.8203125,16.555559 L6.8203125,8.44040769 L10.7709102,12.4805103 L6.8203125,16.555559 Z M7.40035547,17.1538462 L11.3534414,13.0762308 L12.7385937,14.4927487 C12.8989375,14.6567333 13.1576914,14.6561974 13.3173789,14.4914513 L14.6679688,13.0983154 L18.5996445,17.1538462 L7.40035547,17.1538462 Z M19.1796875,16.5555308 L15.2480117,12.5 L19.1796875,8.44444103 L19.1796875,16.5555308 Z" id="Shape"></path>
                            </g>
                        </g>
                    </g>
                </g>
            </g>
        </g>
    </g>
</svg>