<?xml version="1.0" encoding="UTF-8"?>
<svg width="14px" height="14px" viewBox="0 0 14 14" version="1.1" xmlns="http://www.w3.org/2000/svg" xmlns:xlink="http://www.w3.org/1999/xlink">
    <title>Shape</title>
    <g id="Page-1" stroke="none" stroke-width="1" fill="none" fill-rule="evenodd">
        <g id="Sales--Console-Gray" transform="translate(-867.000000, -615.000000)" fill="#FFFFFF" fill-rule="nonzero">
            <g id="Calendar" transform="translate(758.000000, 228.000000)">
                <g transform="translate(0.000000, 37.000000)" id="Task">
                    <g transform="translate(93.000000, 199.000000)">
                        <g id="Group-58" transform="translate(2.000000, 135.000000)">
                            <g id="Group-51" transform="translate(8.000000, 11.000000)">
                                <path d="M19.640113,15.3259099 L17.8996337,13.5855063 C17.4197844,13.1057052 16.6389765,13.1057052 16.1591545,13.5855063 L15.3680375,14.3765889 C15.0045136,14.740097 14.4129875,14.7399876 14.0496003,14.3767257 L10.6205426,10.9448912 C10.256171,10.5805354 10.2561163,9.99081235 10.6205426,9.62640193 C10.7479701,9.49897996 11.113873,9.13309298 11.4116595,8.83531933 C11.8894033,8.35762367 11.8960755,7.57928327 11.4111947,7.09447823 L9.67118029,5.36000823 C9.19133096,4.8802071 8.41055037,4.8802071 7.93198625,5.35875041 C7.57387668,5.71372723 7.45837157,5.82824294 7.29780198,5.98741102 C5.56741301,7.71769743 5.56741301,10.533094 7.29771994,12.2633257 L12.7309444,17.6991578 C14.4653804,19.4335457 17.2726139,19.4336824 19.0071866,17.6991578 L19.640113,17.0662862 C20.1199623,16.5864577 20.1199623,15.8057384 19.640113,15.3259099 Z M8.51087902,5.94013365 C8.67081968,5.78019994 8.93103431,5.78017259 9.09149452,5.94057115 L10.8315089,7.67504115 C10.9918324,7.83535767 10.9918324,8.0948227 10.8315089,8.25516657 L10.5414062,8.54522927 L8.22228033,6.22620416 L8.51087902,5.94013365 Z M13.3112044,17.1191144 L7.87795261,11.6832276 C6.53919814,10.3445314 6.46561286,8.24247906 7.65164574,6.81587256 L9.9640448,9.1281711 C9.35643982,9.81693332 9.38176125,10.8664692 10.0402552,11.5249345 L13.4692036,14.956605 C13.4692309,14.9566323 13.4692856,14.956687 13.469313,14.9567144 C14.1270959,15.6144961 15.1766228,15.641457 15.8662626,15.0330582 L18.1787164,17.3454114 C16.7565871,18.5293419 14.6591741,18.4670255 13.3112044,17.1191144 Z M19.0599897,16.4861608 L18.769887,16.7762508 L16.4492572,14.4556945 L16.7393051,14.1656318 C16.8992731,14.0056981 17.1595151,14.0056707 17.3194831,14.1656318 L19.0599624,15.9060354 C19.2199304,16.0659964 19.2199304,16.3262544 19.0599897,16.4861608 Z" id="Shape"></path>
                            </g>
                        </g>
                    </g>
                </g>
            </g>
        </g>
    </g>
</svg>