<?xml version="1.0" encoding="UTF-8"?>
<svg width="28px" height="28px" viewBox="0 0 28 28" version="1.1" xmlns="http://www.w3.org/2000/svg" xmlns:xlink="http://www.w3.org/1999/xlink">
    <title>Group 472</title>
    <defs>
        <path d="M5.742,0 C8.004,0 9.844,1.84 9.844,4.102 C9.844,4.106 9.843,4.111 9.843,4.115 C11.12,3.602 12.529,3.336 14,3.336 C19.895,3.336 24.719,8.159 24.719,14.055 L24.719,14.055 C25.714,14.806 26.359,15.997 26.359,17.336 C26.359,18.582 25.8,19.7 24.92,20.452 C26.749,21.414 28,23.333 28,25.539 L28,25.539 L28,27.18 C28,27.633 27.633,28 27.18,28 L27.18,28 L17.336,28 C16.883,28 16.516,27.633 16.516,27.18 L16.516,27.18 L16.516,25.539 C16.516,25.141 16.556,24.753 16.634,24.378 C15.805,24.566 14.917,24.664 14,24.664 C8.364,24.664 3.731,20.262 3.313,14.766 L3.313,14.766 L0.82,14.766 C0.367,14.766 0,14.398 0,13.945 L0,13.945 L0,12.305 C0,10.099 1.251,8.179 3.08,7.218 C2.2,6.465 1.641,5.348 1.641,4.102 C1.641,1.84 3.481,0 5.742,0 Z M22.258,21.438 C19.996,21.438 18.156,23.277 18.156,25.539 L18.156,25.539 L18.156,26.359 L26.359,26.359 L26.359,25.539 C26.359,23.277 24.519,21.438 22.258,21.438 Z M14,4.977 C12.243,4.977 10.6,5.417 9.235,6.25 C9.009,6.614 8.728,6.941 8.404,7.218 C10.234,8.179 11.484,10.099 11.484,12.305 L11.484,12.305 L11.484,13.945 C11.484,14.398 11.117,14.766 10.664,14.766 L10.664,14.766 L4.959,14.766 C5.375,19.388 9.271,23.023 14,23.023 C15.259,23.023 16.441,22.815 17.438,22.421 C17.975,21.594 18.719,20.913 19.596,20.452 C18.716,19.7 18.156,18.582 18.156,17.336 C18.156,15.074 19.996,13.234 22.258,13.234 C22.528,13.234 22.792,13.261 23.047,13.311 C22.668,8.652 18.755,4.977 14,4.977 Z M22.258,14.875 C20.901,14.875 19.797,15.979 19.797,17.336 C19.797,18.693 20.901,19.797 22.258,19.797 C23.615,19.797 24.719,18.693 24.719,17.336 C24.719,15.979 23.615,14.875 22.258,14.875 Z M5.742,8.203 C3.481,8.203 1.641,10.043 1.641,12.305 L1.641,12.305 L1.641,13.125 L9.844,13.125 L9.844,12.305 C9.844,10.043 8.004,8.203 5.742,8.203 Z M5.742,1.641 C4.385,1.641 3.281,2.745 3.281,4.102 C3.281,5.459 4.385,6.562 5.742,6.562 C7.099,6.562 8.203,5.459 8.203,4.102 C8.203,2.745 7.099,1.641 5.742,1.641 Z" id="path-1"></path>
    </defs>
    <g id="Page-1" stroke="none" stroke-width="1" fill="none" fill-rule="evenodd">
        <g id="Sales--blue" transform="translate(-1730.000000, -1640.000000)">
            <g id="Group-472" transform="translate(1730.000000, 1640.000000)">
                <mask id="mask-2" fill="white">
                    <use xlink:href="#path-1"></use>
                </mask>
                <g id="Clip-471"></g>
                <polygon id="Fill-470" fill="#FFFFFF" mask="url(#mask-2)" points="-10 -10 38 -10 38 38 -10 38"></polygon>
            </g>
        </g>
    </g>
</svg>