<?xml version="1.0" encoding="UTF-8"?>
<svg width="28px" height="28px" viewBox="0 0 28 28" version="1.1" xmlns="http://www.w3.org/2000/svg" xmlns:xlink="http://www.w3.org/1999/xlink">
    <title>Stroke 568</title>
    <g id="Page-1" stroke="none" stroke-width="1" fill="none" fill-rule="evenodd">
        <g id="Sales--blue" transform="translate(-1729.000000, -1509.000000)" stroke="#FFFFFF" stroke-width="0.5">
            <path d="M1752.83532,1531.23456 C1753.04046,1531.23456 1753.20676,1531.40086 1753.20676,1531.606 C1753.20676,1531.81114 1753.04046,1531.97742 1752.83532,1531.97742 L1749.75248,1531.97742 C1748.62476,1531.97866 1747.71086,1532.89256 1747.70963,1534.02028 L1747.70963,1535.25714 L1748.984,1535.256 L1748.98586,1534.19412 C1748.98586,1533.98898 1749.15215,1533.82268 1749.35728,1533.82268 C1749.56242,1533.82268 1749.72871,1533.98898 1749.72871,1534.19412 L1749.72871,1535.25714 L1753.2372,1535.25714 L1753.2372,1534.19412 C1753.2372,1533.98898 1753.4035,1533.82268 1753.60864,1533.82268 C1753.81376,1533.82268 1753.98006,1533.98898 1753.98006,1534.19412 L1753.98,1535.256 L1755.25702,1535.25714 L1755.25702,1534.02028 C1755.25838,1533.86216 1755.2389,1533.70456 1755.19908,1533.55154 C1755.19062,1533.5203 1755.18638,1533.48808 1755.18646,1533.45572 C1755.1848,1533.26322 1755.33048,1533.10138 1755.52208,1533.08282 C1755.71366,1533.06426 1755.8877,1533.19516 1755.923,1533.3844 C1755.97554,1533.59222 1756.00138,1533.80592 1756,1534.02028 L1756,1535.62856 C1756,1535.8337 1755.83358,1536 1755.62846,1536 L1747.33821,1536 C1747.13307,1536 1746.96678,1535.8337 1746.96678,1535.62856 L1746.96678,1534.02028 C1746.96842,1532.48246 1748.21466,1531.2362 1749.75248,1531.23456 L1752.83532,1531.23456 Z M1736.24926,1531.23568 C1737.78716,1531.23712 1739.03353,1532.48348 1739.03496,1534.0214 L1739.03496,1535.62856 C1739.03496,1535.72728 1738.99567,1535.82192 1738.92578,1535.8916 C1738.85588,1535.9613 1738.76112,1536.0003 1738.66242,1536 L1730.37143,1536 C1730.16629,1536 1730,1535.8337 1730,1535.62856 L1730,1534.0214 C1730.00143,1532.48348 1731.2478,1531.23712 1732.7857,1531.23568 L1736.24926,1531.23568 Z M1736.24814,1531.97854 L1732.7857,1531.97854 C1731.65789,1531.97956 1730.74388,1532.89358 1730.74285,1534.0214 L1730.74285,1535.25714 L1732.018,1535.256 L1732.01982,1534.19412 C1732.01982,1533.98898 1732.18611,1533.82268 1732.39125,1533.82268 C1732.59638,1533.82268 1732.76267,1533.98898 1732.76267,1534.19412 L1732.76267,1535.25714 L1736.27117,1535.25714 L1736.27117,1534.19412 C1736.27117,1533.98898 1736.43746,1533.82268 1736.6426,1533.82268 C1736.84773,1533.82268 1737.01402,1533.98898 1737.01402,1534.19412 L1737.014,1535.256 L1738.29099,1535.25714 L1738.29099,1534.0214 C1738.28997,1532.89358 1737.37595,1531.97956 1736.24814,1531.97854 Z M1754.49264,1531.54286 C1754.68786,1531.64486 1754.87036,1531.76954 1755.0364,1531.91428 C1755.15344,1532.01592 1755.19504,1532.17956 1755.14076,1532.32476 C1755.08648,1532.46996 1754.94776,1532.56618 1754.79274,1532.56614 L1754.79274,1532.56428 C1754.70322,1532.5643 1754.61668,1532.532 1754.54908,1532.47328 C1754.42694,1532.36794 1754.29294,1532.2772 1754.1498,1532.20288 C1753.96754,1532.10822 1753.89654,1531.88372 1753.9912,1531.70146 C1754.08588,1531.5192 1754.31036,1531.44818 1754.49264,1531.54286 Z M1752.41852,1525.60038 C1753.33206,1525.97878 1753.9277,1526.87022 1753.9277,1527.85903 C1753.92606,1529.20854 1752.83246,1530.30214 1751.48296,1530.30376 C1750.49416,1530.30376 1749.60272,1529.70813 1749.22432,1528.79459 C1748.84592,1527.88105 1749.05508,1526.82952 1749.75427,1526.13033 C1750.45346,1525.43114 1751.50498,1525.22198 1752.41852,1525.60038 Z M1735.45248,1525.60038 C1736.36601,1525.97878 1736.96165,1526.87022 1736.96165,1527.85903 C1736.96002,1529.20854 1735.86643,1530.30214 1734.51692,1530.30376 C1733.52812,1530.30376 1732.63668,1529.70813 1732.25828,1528.79459 C1731.87989,1527.88105 1732.08905,1526.82952 1732.78824,1526.13033 C1733.48742,1525.43114 1734.53895,1525.22198 1735.45248,1525.60038 Z M1751.48296,1526.15714 C1750.54304,1526.15714 1749.78108,1526.9191 1749.78108,1527.85903 C1749.78108,1528.79895 1750.54304,1529.56091 1751.48296,1529.56091 C1752.42288,1529.56091 1753.18484,1528.79895 1753.18484,1527.85903 C1753.18382,1526.91953 1752.42246,1526.15816 1751.48296,1526.15714 Z M1734.51692,1526.15714 C1733.577,1526.15714 1732.81504,1526.9191 1732.81504,1527.85903 C1732.81504,1528.79895 1733.577,1529.56091 1734.51692,1529.56091 C1735.45684,1529.56091 1736.2188,1528.79895 1736.2188,1527.85903 C1736.21757,1526.91961 1735.45633,1526.15837 1734.51692,1526.15714 Z M1742.99994,1522.90714 C1743.20507,1522.90714 1743.37137,1523.07344 1743.37137,1523.27857 L1743.37,1525.8 L1745.67421,1527.7294 C1745.79407,1527.82967 1745.83835,1527.99424 1745.78499,1528.14112 C1745.74496,1528.25128 1745.65644,1528.33381 1745.54875,1528.36817 L1745.434,1528.384 L1745.35163,1528.37578 C1745.2959,1528.36259 1745.24361,1528.33652 1745.19916,1528.29917 L1742.99994,1526.4606 L1740.80072,1528.29917 C1740.69999,1528.39254 1740.55595,1528.42269 1740.42622,1528.37757 C1740.29649,1528.33245 1740.20225,1528.21943 1740.1812,1528.0837 C1740.16014,1527.94797 1740.21571,1527.8117 1740.32567,1527.7294 L1742.628,1525.802 L1742.62851,1523.27857 C1742.62851,1523.07344 1742.79481,1522.90714 1742.99994,1522.90714 Z M1744.73265,1515.8214 C1746.27055,1515.82283 1747.51691,1517.0692 1747.51835,1518.60711 L1747.51835,1520.21428 C1747.51835,1520.31305 1747.47901,1520.40775 1747.40903,1520.47745 C1747.33906,1520.54715 1747.2442,1520.58611 1747.14544,1520.58572 L1738.85445,1520.58572 C1738.64931,1520.58572 1738.48302,1520.41942 1738.48302,1520.21428 L1738.48302,1518.60711 C1738.48445,1517.0692 1739.73081,1515.82283 1741.26872,1515.8214 L1744.73265,1515.8214 Z M1744.73116,1516.56426 L1741.26798,1516.56426 C1740.14017,1516.56528 1739.22615,1517.4793 1739.22513,1518.60711 L1739.22587,1519.84286 L1740.502,1519.842 L1740.50284,1518.77983 C1740.50284,1518.57469 1740.66913,1518.4084 1740.87426,1518.4084 C1741.0794,1518.4084 1741.24569,1518.57469 1741.24569,1518.77983 L1741.24569,1519.84286 L1744.75419,1519.84286 L1744.75419,1518.77983 C1744.75419,1518.57469 1744.92048,1518.4084 1745.12562,1518.4084 C1745.33075,1518.4084 1745.49704,1518.57469 1745.49704,1518.77983 L1745.496,1519.842 L1746.77401,1519.84286 L1746.77401,1518.60711 C1746.77298,1517.4793 1745.85897,1516.56528 1744.73116,1516.56426 Z M1742.99994,1510 C1744.35013,1510 1745.44467,1511.09455 1745.44467,1512.44474 C1745.44303,1513.79426 1744.34945,1514.88785 1742.99994,1514.88949 C1741.64975,1514.88949 1740.55521,1513.79494 1740.55521,1512.44474 C1740.55521,1511.09455 1741.64975,1510 1742.99994,1510 Z M1742.99994,1510.74286 C1742.06002,1510.74286 1741.29806,1511.50482 1741.29806,1512.44474 C1741.29806,1513.38467 1742.06002,1514.14663 1742.99994,1514.14663 C1743.93986,1514.14663 1744.70182,1513.38467 1744.70182,1512.44474 C1744.70059,1511.50533 1743.93935,1510.74408 1742.99994,1510.74286 Z" id="Stroke-568"></path>
        </g>
    </g>
</svg>