<?xml version="1.0" encoding="UTF-8"?>
<svg width="32px" height="32px" viewBox="0 0 32 32" version="1.1" xmlns="http://www.w3.org/2000/svg" xmlns:xlink="http://www.w3.org/1999/xlink">
    <title>Group 7</title>
    <g id="Page-1" stroke="none" stroke-width="1" fill="none" fill-rule="evenodd">
        <g id="Coaching-blue" transform="translate(-1021.000000, -106.000000)">
            <g id="Group-26" transform="translate(1018.000000, 103.000000)">
                <g id="Group-7" transform="translate(3.000000, 3.000000)">
                    <rect id="Rectangle-Copy-11" fill="#EF5454" x="0" y="0" width="32" height="32" rx="10"></rect>
                    <path d="M18.1813316,11.6901306 L23.0437507,19.4700011 C23.336461,19.9383376 23.1940878,20.555288 22.7257513,20.8479983 C22.5668197,20.9473306 22.3831721,21 22.1957524,21 L12.4709143,21 C11.9186296,21 11.4709143,20.5522847 11.4709143,20 C11.4709143,19.8125803 11.5235838,19.6289327 11.622916,19.4700011 L16.485335,11.6901306 C16.7780454,11.2217941 17.3949957,11.0794209 17.8633323,11.3721313 C17.9921014,11.452612 18.1008509,11.5613615 18.1813316,11.6901306 Z" id="Triangle" fill="#FFFFFF" transform="translate(17.333333, 15.666667) rotate(90.000000) translate(-17.333333, -15.666667) "></path>
                </g>
            </g>
        </g>
    </g>
</svg>